<svg width="40" height="40" viewBox="0 0 40 40" fill="none" xmlns="http://www.w3.org/2000/svg">
<path d="M20.0759 23.7546C15.2253 26.3225 9.24557 25.4424 5.38797 21.5481C0.35446 16.4338 0.775873 8.19024 6.25421 3.5897C9.69572 0.717288 14.5419 -0.0533617 18.7092 1.55799C19.2087 1.76039 19.7003 1.98611 20.1842 2.23521C19.7471 2.01725 19.2945 1.83046 18.8262 1.67477C15.5486 0.507124 11.7793 0.974183 8.85284 2.86577C3.65544 6.1819 1.87616 12.9309 4.63873 18.3955C7.47644 24.0567 14.3352 26.5598 20.072 23.7523C20.0733 23.753 20.0746 23.7538 20.0759 23.7546Z" fill="url(#paint0_linear_517_5831)"/>
<path d="M20.0829 23.7587C17.3134 25.4369 13.8482 25.9286 10.7258 25.1212C6.60538 24.117 3.16386 20.8709 1.87622 16.8542C-0.394714 9.82495 3.86621 2.32864 11.1238 0.74064C11.9198 0.553816 12.7392 0.460404 13.5587 0.437051C13.565 0.436922 13.5714 0.436799 13.5778 0.43668C13.4971 0.435316 13.4161 0.434631 13.335 0.434631C5.97037 0.434631 0 6.07975 0 13.0434C0 20.007 5.97037 25.6521 13.335 25.6521C15.8562 25.6521 18.2141 24.9905 20.2248 23.8409C20.1773 23.8138 20.13 23.7864 20.0829 23.7587Z" fill="url(#paint1_linear_517_5831)"/>
<path d="M19.9156 2.07435C20.0195 2.13022 20.1226 2.18736 20.2248 2.24578C20.0514 2.34489 19.8806 2.44763 19.7125 2.55389C19.8671 2.44431 20.0244 2.33804 20.1842 2.23521C20.0954 2.1804 20.0059 2.12678 19.9156 2.07435Z" fill="url(#paint2_linear_517_5831)"/>
<path d="M18.1854 22.4082C16.2409 20.8472 14.7771 18.6544 14.1205 16.247C12.5754 10.8291 15.1038 4.78069 20.1842 2.23521C17.047 0.880738 13.3713 0.997537 10.3512 2.53883C4.12368 5.69149 2.04005 13.5614 5.83274 19.3763C8.89931 24.0805 14.8937 25.9103 20.0641 23.7476C20.0617 23.7462 20.0593 23.7448 20.0569 23.7434C15.2915 25.4608 10.0694 23.5423 7.30797 19.3296C4.52198 15.1027 4.82633 9.40454 8.10396 5.52795C9.74278 3.5663 12.1074 2.16512 14.6358 1.74477C16.4854 1.41782 18.4517 1.58133 20.1842 2.23521C18.0771 1.60468 15.8298 1.65135 13.7462 2.28188C12.5288 2.67888 11.3582 3.28606 10.3515 4.05671C3.93669 9.05425 4.7795 19.096 11.9669 22.9259C14.4296 24.2116 17.3673 24.5042 20.0463 23.7371C20.0418 23.7344 20.0373 23.7318 20.0329 23.7291C16.3112 24.4989 12.4954 23.0731 10.07 20.147C7.04992 16.5506 6.62851 11.2962 9.03991 7.25611C9.22721 6.95252 9.48475 6.55552 9.69545 6.27529C9.92957 5.94835 10.1871 5.64476 10.468 5.34117C10.5323 5.26103 10.6517 5.14788 10.7582 5.04703C10.8068 5.00096 10.8527 4.95743 10.8894 4.92082C10.9597 4.85076 11.0592 4.7632 11.1587 4.67563C11.2582 4.58805 11.3577 4.50046 11.4279 4.4304C11.4669 4.39931 11.5084 4.36563 11.55 4.33195C11.6332 4.26449 11.7167 4.19687 11.7791 4.15017L12.0366 3.96334L12.1537 3.86993C12.4112 3.68311 12.739 3.47293 13.0199 3.30946C15.1738 2.11846 17.7962 1.69809 20.1842 2.23521C17.7728 1.90827 15.2908 2.39869 13.2306 3.65975C12.9731 3.82322 12.6687 4.0334 12.4112 4.22023C12.341 4.26693 12.1303 4.4304 12.06 4.50046C11.943 4.59387 11.7557 4.75734 11.6386 4.87411C6.81581 9.24112 6.90945 17.0177 11.8493 21.2679C14.0545 23.1926 17.0938 24.0831 20.0158 23.719C20.0058 23.713 19.9958 23.707 19.9858 23.701C15.7119 23.754 11.9193 21.0667 10.3515 17.1111C8.73608 13.1411 9.60231 8.37708 12.6458 5.31784C13.6057 4.31366 14.7997 3.49631 16.1108 2.98254C17.3984 2.46877 18.8029 2.18851 20.1842 2.23521C14.5185 2.51545 10.094 7.3729 10.1408 12.9776C10.1177 18.5535 14.356 23.2882 19.9557 23.6829C19.9245 23.6642 19.8934 23.6452 19.8624 23.6262C18.0164 23.1911 16.2896 22.2434 14.9397 20.941C14.8343 20.8359 14.7289 20.7191 14.6236 20.6024C14.5182 20.4856 14.4129 20.3688 14.3075 20.2637C14.2693 20.2179 14.221 20.1572 14.1693 20.092L14.169 20.0916C14.0625 19.9576 13.9414 19.8051 13.8627 19.7266C13.7952 19.6053 13.712 19.4918 13.6312 19.3815C13.5721 19.3008 13.5142 19.2218 13.4647 19.1428C13.4179 19.0728 13.3477 18.9619 13.2775 18.851C13.2073 18.7401 13.137 18.629 13.0901 18.559C13.055 18.4889 12.9906 18.3663 12.9263 18.2437C12.8619 18.1211 12.7975 17.9985 12.7624 17.9284C12.7273 17.8584 12.6746 17.7358 12.6219 17.6132C12.5692 17.4906 12.5165 17.368 12.4814 17.2979C12.458 17.2278 12.4053 17.0994 12.3527 16.971C12.3 16.8426 12.2473 16.7141 12.2239 16.644C11.662 15.0327 11.4981 13.2812 11.7088 11.5764C11.8025 10.8058 11.9898 10.0351 12.2239 9.28783C12.2333 9.26449 12.2473 9.22997 12.2641 9.18853C12.3316 9.02264 12.444 8.74605 12.4814 8.63395C12.5283 8.49383 12.6921 8.14353 12.7624 8.00342C12.7975 7.94503 12.8619 7.82243 12.9263 7.69983C12.9906 7.57722 13.055 7.45462 13.0901 7.39624C13.137 7.3145 13.2072 7.20358 13.2774 7.09265C13.3477 6.98172 13.4179 6.8708 13.4647 6.78906C13.5232 6.69566 13.5935 6.60226 13.6637 6.50886C13.7339 6.41547 13.8042 6.32199 13.8627 6.22859C13.9211 6.15869 14.0028 6.05974 14.0846 5.96072L14.0851 5.96003L14.0858 5.9592L14.0862 5.95877C14.1678 5.85994 14.2493 5.76123 14.3075 5.69147C14.3915 5.5798 14.4922 5.47647 14.5896 5.37649L14.59 5.37616C14.6554 5.309 14.7194 5.24335 14.7758 5.1777C14.846 5.10766 14.9396 5.02011 15.0332 4.93255C15.1269 4.84498 15.2206 4.75735 15.2908 4.68729C15.3258 4.6611 15.3936 4.60225 15.4708 4.53518C15.6001 4.42287 15.756 4.28744 15.8293 4.24358C16.3678 3.82323 16.9765 3.44958 17.5852 3.146C18.4046 2.72564 19.2945 2.42204 20.1842 2.23521C18.7561 2.70227 17.3745 3.42623 16.2273 4.3837L16.04 4.52382L15.8761 4.66394L15.5484 4.96753L15.244 5.29447C15.0333 5.50465 14.846 5.73818 14.6587 5.97171C14.5417 6.11182 14.3544 6.36871 14.2607 6.50883C14.2022 6.60224 14.1378 6.69566 14.0734 6.78907C14.009 6.88248 13.9447 6.97589 13.8861 7.0693L13.652 7.44294C13.6052 7.55971 13.5116 7.72318 13.4413 7.83994L13.254 8.23694C13.2189 8.307 13.1662 8.42377 13.1135 8.54053C13.0609 8.6573 13.0082 8.77407 12.9731 8.84412C12.6921 9.61477 12.458 10.4088 12.341 11.2028C12.341 11.2585 12.3303 11.3302 12.3192 11.4051C12.3069 11.4872 12.2941 11.5732 12.2941 11.6465L12.2473 12.0902C12.2356 12.2186 12.2298 12.3763 12.2239 12.5339C12.218 12.6915 12.2122 12.8492 12.2005 12.9776C12.2122 13.106 12.218 13.2637 12.2239 13.4213C12.2298 13.5789 12.2356 13.7366 12.2473 13.865C12.2473 13.9 12.259 14.0168 12.2707 14.1336C12.2824 14.2503 12.2941 14.3671 12.2941 14.4021C12.3175 14.4722 12.341 14.659 12.341 14.7291C12.4346 15.3363 12.5985 15.8967 12.7624 16.4572C12.8092 16.574 12.8619 16.7258 12.9145 16.8776C12.9672 17.0293 13.0199 17.1811 13.0667 17.2979L13.4413 18.0919C13.4881 18.2087 13.5818 18.3955 13.652 18.4889L13.8861 18.8859C14.0032 19.0727 14.1203 19.2596 14.2607 19.4464C14.3544 19.5865 14.5417 19.8434 14.6587 19.9835L15.0801 20.4739C15.1534 20.547 15.2458 20.6455 15.3341 20.7396L15.3346 20.7402L15.335 20.7406C15.4155 20.8265 15.4926 20.9087 15.5484 20.9643C15.642 21.0344 15.9695 21.3611 16.0399 21.4313C17.1383 22.3584 18.3895 23.0764 19.7413 23.551C19.1928 23.2062 18.6728 22.824 18.1854 22.4082Z" fill="url(#paint3_linear_517_5831)"/>
<path d="M19.9241 16.2451C24.7747 13.6772 30.7544 14.5573 34.612 18.4515C39.6455 23.5659 39.2241 31.8095 33.7458 36.41C30.3043 39.2824 25.4581 40.0531 21.2908 38.4417C20.7913 38.2393 20.2997 38.0136 19.8158 37.7645C20.2529 37.9824 20.7055 38.1692 21.1738 38.3249C24.4514 39.4926 28.2207 39.0255 31.1472 37.1339C36.3446 33.8178 38.1238 27.0688 35.3613 21.6042C32.5236 15.943 25.6648 13.4399 19.928 16.2474C19.9267 16.2467 19.9254 16.2459 19.9241 16.2451Z" fill="url(#paint4_linear_517_5831)"/>
<path d="M19.9171 16.241C22.6866 14.5628 26.1518 14.0711 29.2742 14.8785C33.3946 15.8827 36.8361 19.1288 38.1238 23.1455C40.3947 30.1747 36.1338 37.6711 28.8762 39.2591C28.0802 39.4459 27.2608 39.5393 26.4413 39.5626C26.435 39.5628 26.4286 39.5629 26.4222 39.563C26.5029 39.5644 26.5839 39.5651 26.665 39.5651C34.0296 39.5651 40 33.9199 40 26.9563C40 19.9927 34.0296 14.3476 26.665 14.3476C24.1438 14.3476 21.7859 15.0092 19.7752 16.1588C19.8227 16.1859 19.87 16.2133 19.9171 16.241Z" fill="url(#paint5_linear_517_5831)"/>
<path d="M20.0844 37.9253C19.9805 37.8695 19.8774 37.8123 19.7752 37.7539C19.9486 37.6548 20.1194 37.5521 20.2875 37.4458C20.1329 37.5554 19.9756 37.6617 19.8158 37.7645C19.9046 37.8193 19.9941 37.8729 20.0844 37.9253Z" fill="url(#paint6_linear_517_5831)"/>
<path d="M21.8146 17.5915C23.7591 19.1525 25.2229 21.3453 25.8795 23.7527C27.4246 29.1706 24.8962 35.219 19.8158 37.7645C22.953 39.119 26.6287 39.0022 29.6488 37.4609C35.8763 34.3082 37.96 26.4383 34.1673 20.6234C31.1007 15.9192 25.1063 14.0894 19.9359 16.2521C19.9383 16.2535 19.9407 16.2549 19.9431 16.2563C24.7085 14.5389 29.9306 16.4574 32.692 20.6701C35.478 24.897 35.1737 30.5952 31.896 34.4717C30.2572 36.4334 27.8926 37.8346 25.3642 38.2549C23.5146 38.5819 21.5483 38.4184 19.8158 37.7645C21.9229 38.395 24.1702 38.3483 26.2538 37.7178C27.4712 37.3208 28.6418 36.7136 29.6485 35.943C36.0633 30.9454 35.2205 20.9037 28.0331 17.0738C25.5704 15.7881 22.6327 15.4955 19.9537 16.2626C19.9582 16.2653 19.9627 16.2679 19.9671 16.2706C23.6888 15.5008 27.5046 16.9266 29.93 19.8527C32.9501 23.4491 33.3715 28.7035 30.9601 32.7436C30.7728 33.0472 30.5153 33.4442 30.3045 33.7244C30.0704 34.0513 29.8129 34.3549 29.532 34.6585C29.4677 34.7387 29.3483 34.8518 29.2418 34.9527C29.1932 34.9987 29.1473 35.0423 29.1106 35.0789C29.0403 35.1489 28.9408 35.2365 28.8413 35.3241C28.7418 35.4116 28.6423 35.4992 28.5721 35.5693C28.5331 35.6004 28.4916 35.6341 28.45 35.6677C28.3668 35.7352 28.2833 35.8028 28.2209 35.8495L27.9634 36.0364L27.8463 36.1298C27.5888 36.3166 27.261 36.5268 26.9801 36.6902C24.8262 37.8812 22.2038 38.3016 19.8158 37.7645C22.2272 38.0914 24.7092 37.601 26.7694 36.3399C27.0269 36.1765 27.3313 35.9663 27.5888 35.7795C27.659 35.7328 27.8697 35.5693 27.94 35.4992C28.057 35.4058 28.2443 35.2423 28.3614 35.1256C33.1842 30.7586 33.0906 22.982 28.1507 18.7318C25.9455 16.8071 22.9062 15.9166 19.9842 16.2807C19.9942 16.2867 20.0042 16.2927 20.0142 16.2987C24.2881 16.2457 28.0807 18.933 29.6485 22.8886C31.2639 26.8586 30.3977 31.6226 27.3542 34.6819C26.3943 35.686 25.2003 36.5034 23.8892 37.0172C22.6016 37.5309 21.1971 37.8112 19.8158 37.7645C25.4815 37.4842 29.906 32.6268 29.8592 27.0221C29.8823 21.4462 25.644 16.7115 20.0443 16.3167C20.0755 16.3355 20.1066 16.3544 20.1376 16.3735C21.9836 16.8086 23.7104 17.7563 25.0603 19.0587C25.1657 19.1638 25.2711 19.2806 25.3764 19.3973C25.4818 19.5141 25.5871 19.6309 25.6925 19.736C25.7307 19.7818 25.779 19.8425 25.8307 19.9077L25.831 19.9081C25.9375 20.0421 26.0586 20.1946 26.1373 20.2731C26.2048 20.3944 26.288 20.5079 26.3688 20.6182C26.4279 20.6989 26.4858 20.7779 26.5353 20.8569C26.5821 20.9269 26.6523 21.0378 26.7225 21.1487C26.7927 21.2596 26.863 21.3707 26.9099 21.4407C26.945 21.5108 27.0094 21.6334 27.0737 21.756C27.1381 21.8786 27.2025 22.0012 27.2376 22.0713C27.2727 22.1413 27.3254 22.2639 27.3781 22.3865C27.4308 22.5091 27.4835 22.6317 27.5186 22.7018C27.542 22.7719 27.5947 22.9003 27.6473 23.0287C27.7 23.1571 27.7527 23.2856 27.7761 23.3557C28.338 24.967 28.5019 26.7185 28.2912 28.4233C28.1975 29.1939 28.0102 29.9646 27.7761 30.7119C27.7667 30.7352 27.7527 30.7697 27.7359 30.8112C27.6684 30.9771 27.556 31.2536 27.5186 31.3657C27.4717 31.5059 27.3079 31.8562 27.2376 31.9963C27.2025 32.0547 27.1381 32.1773 27.0737 32.2999C27.0094 32.4225 26.945 32.5451 26.9099 32.6035C26.863 32.6852 26.7928 32.7961 26.7226 32.907C26.6523 33.018 26.5821 33.1289 26.5353 33.2106C26.4768 33.304 26.4065 33.3974 26.3363 33.4908C26.2661 33.5842 26.1958 33.6777 26.1373 33.7711C26.0789 33.841 25.9972 33.94 25.9154 34.039L25.9149 34.0397L25.9142 34.0405L25.9138 34.0409C25.8322 34.1398 25.7507 34.2385 25.6925 34.3082C25.6085 34.4199 25.5078 34.5232 25.4104 34.6232L25.41 34.6235C25.3446 34.6907 25.2806 34.7563 25.2242 34.822C25.154 34.892 25.0604 34.9796 24.9668 35.0671C24.8731 35.1547 24.7794 35.2423 24.7092 35.3124C24.6742 35.3386 24.6064 35.3974 24.5292 35.4645C24.3999 35.5768 24.244 35.7123 24.1707 35.7561C23.6322 36.1765 23.0235 36.5501 22.4148 36.8537C21.5954 37.2741 20.7055 37.5777 19.8158 37.7645C21.2439 37.2974 22.6255 36.5735 23.7727 35.616L23.96 35.4759L24.1239 35.3358L24.4516 35.0322L24.756 34.7052C24.9667 34.495 25.154 34.2615 25.3413 34.028C25.4583 33.8879 25.6456 33.631 25.7393 33.4909C25.7978 33.3975 25.8622 33.304 25.9266 33.2106C25.991 33.1172 26.0553 33.0238 26.1139 32.9304L26.348 32.5568C26.3948 32.44 26.4884 32.2765 26.5587 32.1598L26.746 31.7628C26.7811 31.6927 26.8338 31.5759 26.8865 31.4592C26.9391 31.3424 26.9918 31.2256 27.0269 31.1556C27.3079 30.3849 27.542 29.5909 27.659 28.7969C27.659 28.7412 27.6697 28.6695 27.6808 28.5946C27.6931 28.5125 27.7059 28.4265 27.7059 28.3532L27.7527 27.9095C27.7644 27.7811 27.7702 27.6234 27.7761 27.4658C27.782 27.3082 27.7878 27.1505 27.7995 27.0221C27.7878 26.8937 27.782 26.736 27.7761 26.5784C27.7702 26.4208 27.7644 26.2631 27.7527 26.1347C27.7527 26.0996 27.741 25.9829 27.7293 25.8661C27.7176 25.7494 27.7059 25.6326 27.7059 25.5976C27.6825 25.5275 27.659 25.3407 27.659 25.2706C27.5654 24.6634 27.4015 24.103 27.2376 23.5425C27.1908 23.4257 27.1381 23.2739 27.0855 23.1221C27.0328 22.9704 26.9801 22.8186 26.9333 22.7018L26.5587 21.9078C26.5119 21.791 26.4182 21.6042 26.348 21.5108L26.1139 21.1138C25.9968 20.927 25.8797 20.7401 25.7393 20.5533C25.6456 20.4132 25.4583 20.1563 25.3413 20.0162L24.9199 19.5258C24.8466 19.4527 24.7542 19.3542 24.6659 19.26L24.6654 19.2595L24.665 19.2591C24.5845 19.1732 24.5074 19.091 24.4516 19.0354C24.358 18.9653 24.0305 18.6386 23.9601 18.5684C22.8617 17.6413 21.6105 16.9233 20.2587 16.4487C20.8072 16.7935 21.3272 17.1757 21.8146 17.5915Z" fill="url(#paint7_linear_517_5831)"/>
<path d="M16.418 19.8527C13.8212 15.056 14.7112 9.14265 18.6493 5.32792C23.821 0.350338 32.1572 0.767069 36.8095 6.18453C39.7142 9.58781 40.4935 14.3802 38.864 18.5012C38.6593 18.9951 38.4311 19.4812 38.1792 19.9597C38.3996 19.5276 38.5885 19.0799 38.7459 18.6169C39.9267 15.3756 39.4544 11.6482 37.5415 8.75429C34.1882 3.61464 27.3633 1.85513 21.8373 4.58701C16.1125 7.39318 13.5813 14.1757 16.4204 19.8488C16.4196 19.8501 16.4188 19.8514 16.418 19.8527Z" fill="url(#paint8_linear_517_5831)"/>
<path d="M16.4139 19.8596C14.7168 17.1208 14.2195 13.6942 15.0361 10.6065C16.0516 6.5318 19.3341 3.12852 23.3959 1.85519C30.5042 -0.390512 38.0847 3.82307 39.6906 11C39.8795 11.7872 39.9739 12.5975 39.9976 13.4078C39.9977 13.4141 39.9978 13.4205 39.9979 13.4268C39.9993 13.3469 40 13.2669 40 13.1867C40 5.90385 34.2915 -0.000183352 27.2496 -0.000183657C20.2078 -0.000183961 14.4992 5.90385 14.4992 13.1867C14.4992 15.6798 15.1682 18.0115 16.3307 19.9999C16.3582 19.9529 16.3859 19.9061 16.4139 19.8596Z" fill="url(#paint9_linear_517_5831)"/>
<path d="M38.3419 19.6941C38.2854 19.7969 38.2276 19.8988 38.1685 19.9999C38.0683 19.8284 37.9644 19.6595 37.8569 19.4933C37.9677 19.6462 38.0752 19.8017 38.1792 19.9597C38.2346 19.8719 38.2888 19.7834 38.3419 19.6941Z" fill="url(#paint10_linear_517_5831)"/>
<path d="M17.7795 17.9831C19.3581 16.0602 21.5755 14.6128 24.01 13.9635C29.4887 12.4355 35.6051 14.9358 38.1792 19.9597C39.5489 16.8574 39.4308 13.2225 37.8722 10.236C34.6841 4.07768 26.7257 2.01719 20.8455 5.76774C16.0884 8.80025 14.2381 14.728 16.4251 19.841C16.4265 19.8386 16.4279 19.8362 16.4294 19.8339C14.6927 15.1214 16.6327 9.9573 20.8928 7.22659C25.1672 4.47156 30.9293 4.77252 34.8495 8.01373C36.8331 9.63434 38.2501 11.9727 38.6751 14.473C39.0058 16.302 38.8404 18.2465 38.1792 19.9597C38.8168 17.8761 38.7696 15.6538 38.132 13.5933C37.7305 12.3894 37.1165 11.2318 36.3372 10.2363C31.2835 3.89277 21.1289 4.72621 17.256 11.8337C15.9559 14.2691 15.66 17.1742 16.4357 19.8234C16.4384 19.8189 16.4411 19.8145 16.4438 19.8101C15.6653 16.1298 17.1071 12.3564 20.0662 9.95796C23.703 6.97141 29.0164 6.55467 33.1019 8.93928C33.4089 9.1245 33.8103 9.37917 34.0937 9.58754C34.4243 9.81905 34.7313 10.0737 35.0383 10.3515C35.1194 10.4151 35.2338 10.5332 35.3358 10.6384C35.3824 10.6865 35.4264 10.732 35.4634 10.7683C35.5343 10.8377 35.6228 10.9361 35.7114 11.0345C35.7999 11.1329 35.8885 11.2313 35.9593 11.3007C35.9908 11.3393 36.0248 11.3804 36.0589 11.4215C36.1271 11.5038 36.1955 11.5863 36.2427 11.648L36.4316 11.9027L36.5261 12.0185C36.715 12.2731 36.9276 12.5972 37.0929 12.875C38.2973 15.005 38.7223 17.5983 38.1792 19.9597C38.5098 17.5751 38.0139 15.1208 36.7386 13.0834C36.5733 12.8287 36.3608 12.5278 36.1719 12.2731C36.1246 12.2037 35.9593 11.9953 35.8885 11.9258C35.794 11.8101 35.6287 11.6249 35.5106 11.5091C31.0946 6.7399 23.2306 6.83249 18.9326 11.7175C16.9864 13.8981 16.0858 16.9036 16.454 19.7932C16.4601 19.7833 16.4661 19.7734 16.4722 19.7635C16.4186 15.5371 19.1361 11.7866 23.1362 10.2363C27.1508 8.63883 31.9683 9.49543 35.0619 12.5051C36.0774 13.4543 36.9039 14.6351 37.4235 15.9316C37.943 17.2049 38.2264 18.5938 38.1792 19.9597C37.8958 14.357 32.9838 9.98161 27.3161 10.0279C21.6776 10.0051 16.8897 14.1963 16.4905 19.7338C16.5095 19.7029 16.5286 19.6722 16.5478 19.6416C16.9879 17.816 17.9462 16.1084 19.2633 14.7735C19.3695 14.6693 19.4876 14.5651 19.6057 14.4609C19.7238 14.3567 19.8418 14.2526 19.9481 14.1484C19.9944 14.1105 20.0559 14.0628 20.1217 14.0116L20.1221 14.0113C20.2577 13.9061 20.4119 13.7863 20.4913 13.7085C20.6139 13.6417 20.7288 13.5594 20.8402 13.4796C20.9219 13.4211 21.0018 13.3639 21.0816 13.3149C21.1525 13.2686 21.2646 13.1992 21.3767 13.1298C21.4889 13.0603 21.6012 12.9908 21.672 12.9445C21.7429 12.9098 21.8668 12.8461 21.9908 12.7824C22.1148 12.7188 22.2388 12.6551 22.3096 12.6204C22.3805 12.5857 22.5045 12.5336 22.6284 12.4815C22.7524 12.4294 22.8764 12.3773 22.9473 12.3426C23.0181 12.3194 23.148 12.2673 23.2779 12.2152C23.4077 12.1632 23.5377 12.111 23.6085 12.0879C25.2379 11.5323 27.0091 11.3702 28.733 11.5786C29.5123 11.6712 30.2916 11.8564 31.0473 12.0879C31.0709 12.0972 31.1058 12.111 31.1477 12.1277C31.3155 12.1944 31.5952 12.3055 31.7086 12.3426C31.8502 12.3889 32.2045 12.5509 32.3462 12.6204C32.4052 12.6551 32.5292 12.7188 32.6532 12.7824C32.7772 12.8461 32.9011 12.9098 32.9602 12.9445C33.0428 12.9908 33.155 13.0603 33.2672 13.1297C33.3793 13.1992 33.4915 13.2686 33.5742 13.3149C33.6686 13.3728 33.7631 13.4422 33.8575 13.5117C33.952 13.5811 34.0465 13.6506 34.1409 13.7085C34.2116 13.7663 34.3117 13.847 34.4118 13.9279L34.4125 13.9284L34.4134 13.9291L34.4138 13.9295C34.5137 14.0102 34.6135 14.0907 34.6841 14.1484C34.797 14.2314 34.9015 14.331 35.0026 14.4273L35.003 14.4277C35.0709 14.4924 35.1372 14.5556 35.2036 14.6114C35.2745 14.6809 35.363 14.7734 35.4515 14.866C35.5401 14.9586 35.6287 15.0513 35.6996 15.1207C35.726 15.1554 35.7855 15.2224 35.8534 15.2987C35.967 15.4266 36.1039 15.5808 36.1482 15.6532C36.5733 16.1857 36.9512 16.7877 37.2582 17.3896C37.6832 18.1999 37.9903 19.08 38.1792 19.9597C37.7069 18.5475 36.9748 17.1812 36.0066 16.0468L35.8649 15.8616L35.7232 15.6995L35.4162 15.3754L35.0856 15.0744C34.873 14.8661 34.6369 14.6809 34.4007 14.4957C34.259 14.3799 33.9992 14.1947 33.8576 14.1021C33.7631 14.0442 33.6686 13.9805 33.5742 13.9169C33.4797 13.8532 33.3852 13.7895 33.2908 13.7317L32.9129 13.5001C32.7949 13.4538 32.6296 13.3612 32.5115 13.2918L32.11 13.1066C32.0392 13.0718 31.9211 13.0197 31.803 12.9677C31.6849 12.9156 31.5669 12.8635 31.496 12.8288C30.7167 12.5509 29.9138 12.3194 29.1109 12.2037C29.0545 12.2037 28.982 12.1931 28.9063 12.1821C28.8232 12.17 28.7362 12.1574 28.6622 12.1574L28.2135 12.111C28.0836 12.0995 27.9242 12.0937 27.7648 12.0879C27.6054 12.0821 27.446 12.0763 27.3161 12.0647C27.1862 12.0763 27.0268 12.0821 26.8674 12.0879C26.708 12.0937 26.5486 12.0995 26.4187 12.111C26.3833 12.111 26.2652 12.1226 26.1471 12.1342C26.0291 12.1458 25.911 12.1574 25.8756 12.1574C25.8047 12.1805 25.6158 12.2037 25.5449 12.2037C24.9309 12.2963 24.3642 12.4583 23.7974 12.6204C23.6793 12.6667 23.5258 12.7188 23.3723 12.7709C23.2188 12.823 23.0653 12.875 22.9473 12.9213L22.1443 13.2918C22.0263 13.3381 21.8373 13.4307 21.7429 13.5001L21.3414 13.7317C21.1525 13.8474 20.9636 13.9632 20.7746 14.1021C20.6329 14.1947 20.3732 14.3799 20.2315 14.4957L19.7356 14.9124C19.6616 14.9849 19.562 15.0762 19.4668 15.1635L19.4663 15.164L19.4659 15.1644C19.379 15.2441 19.2959 15.3203 19.2396 15.3754C19.1688 15.468 18.8384 15.7919 18.7674 15.8615C17.8299 16.9477 17.1038 18.185 16.6239 19.5218C16.9726 18.9793 17.3591 18.4651 17.7795 17.9831Z" fill="url(#paint11_linear_517_5831)"/>
<path d="M23.582 20.147C26.1788 24.9437 25.2888 30.857 21.3507 34.6718C16.179 39.6494 7.84275 39.2326 3.19052 33.8152C0.285833 30.4119 -0.493476 25.6195 1.13599 21.4985C1.34065 21.0046 1.56891 20.5184 1.82081 20.04C1.6004 20.4721 1.41151 20.9198 1.25408 21.3828C0.0733075 24.6241 0.545614 28.3515 2.45846 31.2454C5.81184 36.3851 12.6367 38.1446 18.1627 35.4127C23.8875 32.6065 26.4187 25.824 23.5796 20.1509C23.5804 20.1496 23.5812 20.1483 23.582 20.147Z" fill="url(#paint12_linear_517_5831)"/>
<path d="M23.5861 20.1401C25.2832 22.8789 25.7805 26.3055 24.9639 29.3932C23.9484 33.4679 20.6659 36.8712 16.6041 38.1445C9.49583 40.3902 1.91529 36.1766 0.309447 28.9996C0.120524 28.2125 0.0260629 27.4022 0.00244751 26.5919C0.00231721 26.5856 0.00219212 26.5792 0.00207224 26.5729C0.000693084 26.6528 5.79921e-07 26.7328 5.76415e-07 26.813C2.58073e-07 34.0958 5.70855 39.9999 12.7504 39.9999C19.7922 39.9999 25.5008 34.0958 25.5008 26.813C25.5008 24.3199 24.8318 21.9882 23.6693 19.9998C23.6418 20.0468 23.6141 20.0936 23.5861 20.1401Z" fill="url(#paint13_linear_517_5831)"/>
<path d="M1.65814 20.3055C1.71464 20.2028 1.77243 20.1009 1.8315 19.9998C1.93172 20.1713 2.03562 20.3402 2.14307 20.5064C2.03226 20.3535 1.9248 20.198 1.82081 20.04C1.76538 20.1278 1.71116 20.2163 1.65814 20.3055Z" fill="url(#paint14_linear_517_5831)"/>
<path d="M22.2205 22.0165C20.6419 23.9395 18.4245 25.3869 15.99 26.0362C10.5113 27.5642 4.39489 25.0639 1.82081 20.04C0.45112 23.1423 0.569231 26.7772 2.12785 29.7637C5.31592 35.922 13.2743 37.9825 19.1545 34.232C23.9116 31.1994 25.7619 25.2717 23.5749 20.1587C23.5735 20.1611 23.5721 20.1635 23.5706 20.1658C25.3073 24.8783 23.3673 30.0424 19.1072 32.7731C14.8328 35.5281 9.0707 35.2272 5.15055 31.986C3.16686 30.3654 1.74993 28.027 1.32486 25.5267C0.994241 23.6977 1.15958 21.7532 1.82081 20.04C1.1832 22.1236 1.23039 24.3459 1.86801 26.4064C2.26947 27.6103 2.88347 28.7679 3.66278 29.7634C8.71647 36.1069 18.8711 35.2735 22.744 28.166C24.0441 25.7306 24.34 22.8255 23.5643 20.1763C23.5616 20.1807 23.5589 20.1852 23.5562 20.1896C24.3347 23.8699 22.8929 27.6433 19.9338 30.0417C16.297 33.0283 10.9836 33.445 6.89813 31.0604C6.59113 30.8752 6.18967 30.6205 5.90628 30.4122C5.57567 30.1806 5.26867 29.926 4.96167 29.6482C4.88062 29.5846 4.76621 29.4665 4.66423 29.3612C4.61764 29.3132 4.57362 29.2677 4.53659 29.2314C4.46575 29.162 4.3772 29.0636 4.28865 28.9652C4.20009 28.8668 4.11152 28.7684 4.04067 28.699C4.00923 28.6604 3.97517 28.6193 3.94111 28.5782C3.87289 28.4959 3.80451 28.4134 3.75728 28.3517L3.56836 28.097L3.4739 27.9812C3.28498 27.7266 3.07244 27.4025 2.90713 27.1246C1.70275 24.9947 1.27766 22.4014 1.82081 20.04C1.4902 22.4246 1.98613 24.8789 3.26136 26.9163C3.42667 27.1709 3.63921 27.4719 3.82813 27.7266C3.87536 27.796 4.04067 28.0044 4.11151 28.0739C4.20598 28.1896 4.37128 28.3748 4.48936 28.4906C8.90544 33.2598 16.7694 33.1672 21.0674 28.2822C23.0136 26.1016 23.9142 23.0961 23.546 20.2065C23.5399 20.2164 23.5339 20.2263 23.5278 20.2362C23.5814 24.4626 20.8639 28.2131 16.8638 29.7634C12.8492 31.3609 8.03169 30.5043 4.93807 27.4946C3.92261 26.5453 3.09608 25.3646 2.57654 24.0681C2.057 22.7948 1.77358 21.4059 1.82081 20.04C2.1042 25.6427 7.01623 30.0181 12.6839 29.9718C18.3224 29.9946 23.1103 25.8034 23.5095 20.2659C23.4905 20.2967 23.4714 20.3275 23.4522 20.3581C23.0121 22.1837 22.0538 23.8913 20.7367 25.2262C20.6305 25.3304 20.5124 25.4346 20.3943 25.5388C20.2762 25.643 20.1582 25.7471 20.0519 25.8513C20.0056 25.8892 19.9441 25.9369 19.8783 25.9881L19.8779 25.9884C19.7423 26.0936 19.5881 26.2134 19.5087 26.2912C19.3861 26.358 19.2712 26.4403 19.1598 26.5201C19.0781 26.5786 18.9982 26.6358 18.9184 26.6848C18.8475 26.7311 18.7354 26.8005 18.6233 26.8699C18.5111 26.9394 18.3988 27.0089 18.328 27.0552C18.2571 27.0899 18.1332 27.1536 18.0092 27.2172C17.8852 27.2809 17.7612 27.3446 17.6904 27.3793C17.6195 27.414 17.4955 27.4661 17.3716 27.5182C17.2476 27.5703 17.1236 27.6224 17.0527 27.6571C16.9819 27.6803 16.852 27.7324 16.7221 27.7845C16.5923 27.8365 16.4623 27.8887 16.3915 27.9118C14.7621 28.4674 12.9909 28.6295 11.267 28.4211C10.4877 28.3285 9.70837 28.1433 8.95267 27.9118C8.92908 27.9025 8.89416 27.8887 8.85226 27.872C8.6845 27.8053 8.4048 27.6942 8.29144 27.6571C8.14975 27.6108 7.79552 27.4488 7.65383 27.3793C7.59479 27.3446 7.47081 27.2809 7.34683 27.2172C7.22285 27.1536 7.09887 27.0899 7.03983 27.0552C6.95717 27.0089 6.845 26.9394 6.73283 26.87C6.62066 26.8005 6.50848 26.7311 6.42583 26.6848C6.33138 26.6269 6.23693 26.5575 6.14248 26.488C6.04804 26.4186 5.95351 26.3491 5.85906 26.2912C5.78838 26.2334 5.68831 26.1527 5.58818 26.0718L5.58748 26.0713L5.58664 26.0706L5.58621 26.0702C5.48627 25.9895 5.38645 25.909 5.31591 25.8513C5.20298 25.7683 5.09849 25.6687 4.99739 25.5724L4.99705 25.572C4.92913 25.5073 4.86275 25.4441 4.79637 25.3883C4.72554 25.3188 4.637 25.2263 4.54846 25.1337C4.4599 25.0411 4.37129 24.9484 4.30044 24.8789C4.27396 24.8443 4.21445 24.7773 4.14662 24.701C4.03305 24.5731 3.8961 24.4189 3.85175 24.3465C3.42667 23.814 3.04883 23.212 2.74183 22.6101C2.31675 21.7998 2.00974 20.9197 1.82081 20.04C2.29312 21.4522 3.02521 22.8185 3.99344 23.9529L4.13514 24.1381L4.27683 24.3002L4.58383 24.6243L4.91444 24.9253C5.12698 25.1336 5.36314 25.3188 5.59929 25.504C5.74098 25.6198 6.00075 25.805 6.14244 25.8976C6.23691 25.9555 6.33137 26.0192 6.42584 26.0828C6.5203 26.1465 6.61475 26.2102 6.70921 26.268L7.08706 26.4996C7.20514 26.5459 7.37044 26.6385 7.48852 26.7079L7.88998 26.8931C7.96083 26.9279 8.0789 26.98 8.19698 27.032C8.31506 27.0841 8.43314 27.1362 8.50398 27.1709C9.28329 27.4488 10.0862 27.6803 10.8891 27.796C10.9455 27.796 11.018 27.8066 11.0937 27.8176C11.1768 27.8297 11.2638 27.8423 11.3378 27.8423L11.7865 27.8886C11.9164 27.9002 12.0758 27.906 12.2352 27.9118C12.3946 27.9176 12.554 27.9234 12.6839 27.935C12.8138 27.9234 12.9732 27.9176 13.1326 27.9118C13.292 27.906 13.4514 27.9002 13.5813 27.8886C13.6167 27.8886 13.7348 27.8771 13.8529 27.8655C13.9709 27.8539 14.089 27.8423 14.1244 27.8423C14.1953 27.8192 14.3842 27.796 14.4551 27.796C15.0691 27.7034 15.6358 27.5414 16.2026 27.3793C16.3207 27.333 16.4742 27.2809 16.6277 27.2288C16.7812 27.1767 16.9347 27.1246 17.0527 27.0783L17.8557 26.7079C17.9737 26.6616 18.1627 26.569 18.2571 26.4996L18.6586 26.268C18.8475 26.1523 19.0364 26.0365 19.2254 25.8976C19.3671 25.805 19.6268 25.6198 19.7685 25.504L20.2644 25.0873C20.3384 25.0148 20.438 24.9235 20.5332 24.8362L20.5337 24.8357L20.5341 24.8353C20.621 24.7556 20.7041 24.6794 20.7604 24.6243C20.8312 24.5317 21.1616 24.2078 21.2326 24.1382C22.1701 23.052 22.8962 21.8147 23.3761 20.4779C23.0274 21.0204 22.6409 21.5346 22.2205 22.0165Z" fill="url(#paint15_linear_517_5831)"/>
<defs>
<linearGradient id="paint0_linear_517_5831" x1="21.3239" y1="-2.60885" x2="21.3969" y2="29.565" gradientUnits="userSpaceOnUse">
<stop stop-color="white" stop-opacity="0.3"/>
<stop offset="0.493767" stop-color="white"/>
<stop offset="1" stop-color="white" stop-opacity="0.3"/>
</linearGradient>
<linearGradient id="paint1_linear_517_5831" x1="21.3239" y1="-2.60885" x2="21.3969" y2="29.565" gradientUnits="userSpaceOnUse">
<stop stop-color="white" stop-opacity="0.3"/>
<stop offset="0.493767" stop-color="white"/>
<stop offset="1" stop-color="white" stop-opacity="0.3"/>
</linearGradient>
<linearGradient id="paint2_linear_517_5831" x1="21.3239" y1="-2.60885" x2="21.3969" y2="29.565" gradientUnits="userSpaceOnUse">
<stop stop-color="white" stop-opacity="0.3"/>
<stop offset="0.493767" stop-color="white"/>
<stop offset="1" stop-color="white" stop-opacity="0.3"/>
</linearGradient>
<linearGradient id="paint3_linear_517_5831" x1="21.3239" y1="-2.60885" x2="21.3969" y2="29.565" gradientUnits="userSpaceOnUse">
<stop stop-color="white" stop-opacity="0.3"/>
<stop offset="0.493767" stop-color="white"/>
<stop offset="1" stop-color="white" stop-opacity="0.3"/>
</linearGradient>
<linearGradient id="paint4_linear_517_5831" x1="20.6546" y1="44.1303" x2="21.6477" y2="8.04034" gradientUnits="userSpaceOnUse">
<stop stop-color="white" stop-opacity="0.3"/>
<stop offset="0.493767" stop-color="white"/>
<stop offset="1" stop-color="white" stop-opacity="0.3"/>
</linearGradient>
<linearGradient id="paint5_linear_517_5831" x1="20.6546" y1="44.1303" x2="21.6477" y2="8.04034" gradientUnits="userSpaceOnUse">
<stop stop-color="white" stop-opacity="0.3"/>
<stop offset="0.493767" stop-color="white"/>
<stop offset="1" stop-color="white" stop-opacity="0.3"/>
</linearGradient>
<linearGradient id="paint6_linear_517_5831" x1="20.6546" y1="44.1303" x2="21.6477" y2="8.04034" gradientUnits="userSpaceOnUse">
<stop stop-color="white" stop-opacity="0.3"/>
<stop offset="0.493767" stop-color="white"/>
<stop offset="1" stop-color="white" stop-opacity="0.3"/>
</linearGradient>
<linearGradient id="paint7_linear_517_5831" x1="20.6546" y1="44.1303" x2="21.6477" y2="8.04034" gradientUnits="userSpaceOnUse">
<stop stop-color="white" stop-opacity="0.3"/>
<stop offset="0.493767" stop-color="white"/>
<stop offset="1" stop-color="white" stop-opacity="0.3"/>
</linearGradient>
<linearGradient id="paint8_linear_517_5831" x1="44.1769" y1="17.6086" x2="10.1027" y2="17.6875" gradientUnits="userSpaceOnUse">
<stop stop-color="white" stop-opacity="0.3"/>
<stop offset="0.493767" stop-color="white"/>
<stop offset="1" stop-color="white" stop-opacity="0.3"/>
</linearGradient>
<linearGradient id="paint9_linear_517_5831" x1="44.1769" y1="17.6086" x2="10.1027" y2="17.6875" gradientUnits="userSpaceOnUse">
<stop stop-color="white" stop-opacity="0.3"/>
<stop offset="0.493767" stop-color="white"/>
<stop offset="1" stop-color="white" stop-opacity="0.3"/>
</linearGradient>
<linearGradient id="paint10_linear_517_5831" x1="44.1769" y1="17.6086" x2="10.1027" y2="17.6875" gradientUnits="userSpaceOnUse">
<stop stop-color="white" stop-opacity="0.3"/>
<stop offset="0.493767" stop-color="white"/>
<stop offset="1" stop-color="white" stop-opacity="0.3"/>
</linearGradient>
<linearGradient id="paint11_linear_517_5831" x1="44.1769" y1="17.6086" x2="10.1027" y2="17.6875" gradientUnits="userSpaceOnUse">
<stop stop-color="white" stop-opacity="0.3"/>
<stop offset="0.493767" stop-color="white"/>
<stop offset="1" stop-color="white" stop-opacity="0.3"/>
</linearGradient>
<linearGradient id="paint12_linear_517_5831" x1="-6.3752" y1="22.3911" x2="30.1171" y2="22.3065" gradientUnits="userSpaceOnUse">
<stop stop-color="white" stop-opacity="0.3"/>
<stop offset="0.493767" stop-color="white"/>
<stop offset="1" stop-color="white" stop-opacity="0.3"/>
</linearGradient>
<linearGradient id="paint13_linear_517_5831" x1="-6.3752" y1="22.3911" x2="30.1171" y2="22.3065" gradientUnits="userSpaceOnUse">
<stop stop-color="white" stop-opacity="0.3"/>
<stop offset="0.493767" stop-color="white"/>
<stop offset="1" stop-color="white" stop-opacity="0.3"/>
</linearGradient>
<linearGradient id="paint14_linear_517_5831" x1="-6.3752" y1="22.3911" x2="30.1171" y2="22.3065" gradientUnits="userSpaceOnUse">
<stop stop-color="white" stop-opacity="0.3"/>
<stop offset="0.493767" stop-color="white"/>
<stop offset="1" stop-color="white" stop-opacity="0.3"/>
</linearGradient>
<linearGradient id="paint15_linear_517_5831" x1="-6.3752" y1="22.3911" x2="30.1171" y2="22.3065" gradientUnits="userSpaceOnUse">
<stop stop-color="white" stop-opacity="0.3"/>
<stop offset="0.493767" stop-color="white"/>
<stop offset="1" stop-color="white" stop-opacity="0.3"/>
</linearGradient>
</defs>
</svg>
